# xmcd
#
# Track frame offsets:
# 150
# 15608
# 30710
# 50040
# 61035
# 75500
# 90880
# 105329
# 121024
# 132859
# 154751
# 165258
# 179696
# 193782
# 215245
# 230186
# 247313
# 262319
# 279490
# 290929
#
# Disc length: 3956 seconds
#
#
# Revision: 3
# Processed by: cddbd v1.5.2PL0 Copyright (c) Steve Scherf et al.
# Submitted via: FreeRIP 2.945 
#
DISCID=240f7214
DTITLE=Bear-G1999 - Darwins-Radio15
DYEAR=1999
DGENRE=Space
TTITLE0=DR 1501
TTITLE1=DR 1502
TTITLE2=DR 1503
TTITLE3=DR 1504
TTITLE4=DR 1505
TTITLE5=DR 1506
TTITLE6=DR 1507
TTITLE7=DR 1508
TTITLE8=DR 1509
TTITLE9=DR 1510
TTITLE10=DR 1511
TTITLE11=DR 1512
TTITLE12=DR 1513
TTITLE13=DR 1514
TTITLE14=DR 1515
TTITLE15=DR 1516
TTITLE16=DR 1517
TTITLE17=DR 1518
TTITLE18=DR 1519
TTITLE19=DR 1520
EXTD=Darwin's Radio by Greg Bear. Unabridged. \nPerformed by George Guidall. 15 CDs\nrecorded books Space
EXTT0=
EXTT1=
EXTT2=
EXTT3=
EXTT4=
EXTT5=
EXTT6=
EXTT7=
EXTT8=
EXTT9=
EXTT10=
EXTT11=
EXTT12=
EXTT13=
EXTT14=
EXTT15=
EXTT16=
EXTT17=
EXTT18=
EXTT19=
PLAYORDER=
